<svg id="visual" viewBox="0 0 540 960" width="540" height="960" xmlns="http://www.w3.org/2000/svg" xmlns:xlink="http://www.w3.org/1999/xlink" version="1.1"><rect x="0" y="0" width="540" height="960" fill="#fae8ff"></rect><defs><linearGradient id="grad1_0" x1="0%" y1="0%" x2="100%" y2="100%"><stop offset="30%" stop-color="#fae8ff" stop-opacity="1"></stop><stop offset="70%" stop-color="#fae8ff" stop-opacity="1"></stop></linearGradient></defs><defs><linearGradient id="grad2_0" x1="0%" y1="0%" x2="100%" y2="100%"><stop offset="30%" stop-color="#fae8ff" stop-opacity="1"></stop><stop offset="70%" stop-color="#fae8ff" stop-opacity="1"></stop></linearGradient></defs><g transform="translate(540, 0)"><path d="M0 189C-27 186.9 -53.9 184.8 -70.4 170C-86.9 155.2 -92.8 127.6 -111 111C-129.2 94.5 -159.6 89 -174.6 72.3C-189.6 55.7 -189.3 27.8 -189 0L0 0Z" fill="#fa3cc0"></path></g><g transform="translate(0, 960)"><path d="M0 -189C21.6 -173.8 43.3 -158.5 60.1 -145C76.9 -131.6 88.8 -119.9 109.6 -109.6C130.4 -99.3 159.9 -90.4 174.6 -72.3C189.3 -54.3 189.2 -27.1 189 0L0 0Z" fill="#fa3cc0"></path></g></svg>